<svg xmlns="http://www.w3.org/2000/svg" width="1931.443" height="764.753" viewBox="0 0 1931.443 764.753"><defs><style>.a,.c{fill:blue;}.a,.b,.d{opacity:0.025;}.d,.f{fill:none;}.d{stroke:blue;stroke-miterlimit:10;stroke-width:10px;}.e{stroke:none;}</style></defs><path class="a" d="M327.488,290.461H222.342a6.835,6.835,0,0,1-6.842-6.842V178.442a6.835,6.835,0,0,1,6.842-6.842H327.518a6.835,6.835,0,0,1,6.842,6.842V283.618A6.88,6.88,0,0,1,327.488,290.461Z" transform="translate(93.231 56.516)"/><path class="a" d="M330.635,293.8h-108.1a7.027,7.027,0,0,1-7.035-7.035V178.634a7.027,7.027,0,0,1,7.035-7.034H330.666a7.027,7.027,0,0,1,7.034,7.034V286.766A7.074,7.074,0,0,1,330.635,293.8Z" transform="translate(1430.314 407.195)"/><path class="a" d="M351.982,316.458H223.839a8.33,8.33,0,0,1-8.339-8.339V179.939a8.33,8.33,0,0,1,8.339-8.339h128.18a8.33,8.33,0,0,1,8.339,8.339V308.119A8.385,8.385,0,0,1,351.982,316.458Z" transform="translate(1519.577 -171.6)"/><path class="a" d="M600.093,536.779h-62.44a4.05,4.05,0,0,1-4.053-4.053V470.253a4.05,4.05,0,0,1,4.053-4.053h62.44a4.05,4.05,0,0,1,4.053,4.053v62.44A4.078,4.078,0,0,1,600.093,536.779Z" transform="translate(-135.632 -158.191)"/><path class="a" d="M596.412,532.872H537.428a3.826,3.826,0,0,1-3.828-3.829V470.029a3.826,3.826,0,0,1,3.828-3.829h58.984a3.826,3.826,0,0,1,3.828,3.829v58.984A3.852,3.852,0,0,1,596.412,532.872Z" transform="translate(1211.226 204.292)"/><path class="a" d="M608.058,545.234h-69.92A4.535,4.535,0,0,1,533.6,540.7V470.738a4.535,4.535,0,0,1,4.538-4.538h69.92a4.535,4.535,0,0,1,4.538,4.538v69.92A4.567,4.567,0,0,1,608.058,545.234Z" transform="translate(1318.846 -357.501)"/><path class="a" d="M1824.837,370.308h-72.965a7.962,7.962,0,0,1-7.971-7.972V289.371a7.962,7.962,0,0,1,7.971-7.972h72.965a7.962,7.962,0,0,1,7.971,7.972v72.965A7.94,7.94,0,0,1,1824.837,370.308Z" transform="translate(-698.033 90.412)"/><path class="a" d="M1838.773,385.618h-85.529a9.333,9.333,0,0,1-9.344-9.344V290.744a9.333,9.333,0,0,1,9.344-9.344h85.529a9.334,9.334,0,0,1,9.344,9.344v85.529A9.308,9.308,0,0,1,1838.773,385.618Z" transform="translate(-1743.9 295.115)"/><path class="a" d="M2071.209,511.345h-182.26a10.539,10.539,0,0,1-10.55-10.55V453.949a10.539,10.539,0,0,1,10.55-10.55h182.26a10.539,10.539,0,0,1,10.55,10.55V500.8A10.583,10.583,0,0,1,2071.209,511.345Z" transform="translate(-786.908 -16.635)"/><path class="a" d="M2104.41,523.044H1890.766a12.354,12.354,0,0,1-12.366-12.366V455.766a12.354,12.354,0,0,1,12.366-12.366H2104.41a12.354,12.354,0,0,1,12.366,12.366v54.912A12.405,12.405,0,0,1,2104.41,523.044Z" transform="translate(-1824.919 197.531)"/><g class="b" transform="translate(416.327 699.304)"><path class="c" d="M240.225,1384.149a32.725,32.725,0,1,1,32.725-32.725A32.752,32.752,0,0,1,240.225,1384.149Zm0-49.544a16.82,16.82,0,1,0,16.82,16.82A16.851,16.851,0,0,0,240.225,1334.6Z" transform="translate(-207.5 -1318.7)"/></g><g class="b" transform="translate(38.609 84.236)"><path class="c" d="M240.225,1384.149a32.725,32.725,0,1,1,32.725-32.725A32.752,32.752,0,0,1,240.225,1384.149Zm0-49.544a16.82,16.82,0,1,0,16.82,16.82A16.851,16.851,0,0,0,240.225,1334.6Z" transform="translate(-207.5 -1318.7)"/></g><g class="b" transform="translate(1406.56 678.887)"><path class="c" d="M240.225,1384.149a32.725,32.725,0,1,1,32.725-32.725A32.752,32.752,0,0,1,240.225,1384.149Zm0-49.544a16.82,16.82,0,1,0,16.82,16.82A16.851,16.851,0,0,0,240.225,1334.6Z" transform="translate(-207.5 -1318.7)"/></g><g class="d" transform="translate(590.87 440.623)"><ellipse class="e" cx="21.693" cy="21.693" rx="21.693" ry="21.693"/><ellipse class="f" cx="21.693" cy="21.693" rx="16.693" ry="16.693"/></g><g class="d" transform="translate(427.533 19.519)"><ellipse class="e" cx="21.693" cy="21.693" rx="21.693" ry="21.693"/><ellipse class="f" cx="21.693" cy="21.693" rx="16.693" ry="16.693"/></g><g class="d" transform="translate(1503.263 166.268)"><ellipse class="e" cx="21.693" cy="21.693" rx="21.693" ry="21.693"/><ellipse class="f" cx="21.693" cy="21.693" rx="16.693" ry="16.693"/></g><g class="d" transform="translate(104.686 371.715)"><ellipse class="e" cx="21.693" cy="21.693" rx="21.693" ry="21.693"/><ellipse class="f" cx="21.693" cy="21.693" rx="16.693" ry="16.693"/></g><g class="d" transform="translate(1812.072 397.237)"><ellipse class="e" cx="21.693" cy="21.693" rx="21.693" ry="21.693"/><ellipse class="f" cx="21.693" cy="21.693" rx="16.693" ry="16.693"/></g></svg>