<svg xmlns="http://www.w3.org/2000/svg" width="484.25" height="40.591" viewBox="0 0 484.25 40.591"><defs><style>.a{fill:#303e3e;}</style></defs><path class="a" d="M159.7-315.015c-5.521-1.357-10.737-2.638-10.737-8.258,0-4.737,4.051-7.68,10.571-7.68a16.611,16.611,0,0,1,9.49,3.029l.277.2.932-1.355-.252-.192a18.055,18.055,0,0,0-10.5-3.314c-8.995,0-12.2,4.783-12.2,9.259,0,6.957,6.067,8.432,11.934,9.859,5.469,1.33,10.635,2.587,10.635,8.144,0,4.746-4.047,7.58-10.825,7.58-4.528,0-9.133-1.848-11.461-4.6l-.225-.266L146.15-301.5l.2.242c2.494,3.077,7.611,5.145,12.734,5.145,9.183,0,12.455-4.757,12.455-9.209C171.535-312.108,165.52-313.586,159.7-315.015Z" transform="translate(-146.15 334.641)"/><path class="a" d="M843.239-298.831l-11.678-33.295h-1.487l-11.628,33.195-11.38-33.195h-1.82l12.4,36.167h1.488l11.682-33.4,11.682,33.4h1.489l12.4-36.167h-1.769Z" transform="translate(-586.052 334.336)"/><path class="a" d="M1539.459-315.015c-5.521-1.357-10.736-2.638-10.736-8.258,0-4.737,4.05-7.68,10.571-7.68a16.612,16.612,0,0,1,9.49,3.029l.277.2.931-1.355-.252-.192a18.055,18.055,0,0,0-10.5-3.314c-8.995,0-12.2,4.783-12.2,9.259,0,6.957,6.067,8.432,11.934,9.859,5.469,1.33,10.635,2.587,10.635,8.144,0,4.746-4.047,7.58-10.824,7.58-4.528,0-9.134-1.848-11.461-4.6l-.225-.266-1.195,1.107.2.242c2.494,3.077,7.611,5.145,12.735,5.145,9.183,0,12.454-4.757,12.454-9.209C1551.292-312.108,1545.276-313.586,1539.459-315.015Z" transform="translate(-1067.041 334.641)"/><g transform="translate(49.174 2.21)"><path class="a" d="M295.691-332.125H294.01v36.167h1.681v-17.548h18.054v-1.629H295.691Z" transform="translate(-294.01 332.125)"/><rect class="a" width="1.681" height="36.167" transform="translate(26.879 0)"/></g><g transform="translate(355.006 2.21)"><path class="a" d="M1257.959-320.127c0-7.513-5.339-12-14.28-12h-3.527v1.63h3.629c8.059,0,12.5,3.682,12.5,10.368s-4.438,10.368-12.5,10.368h-3.629v1.629h3.527a22.4,22.4,0,0,0,4.013-.321l9,12.493h2.09l-9.33-12.919C1254.944-310.457,1257.959-314.436,1257.959-320.127Z" transform="translate(-1231.327 332.125)"/><rect class="a" width="1.681" height="36.167" transform="translate(0 0)"/></g><path class="a" d="M672.551-332.125l-23.566,24.212v-24.212H647.3v36.167h1.681v-9.63l8.482-8.725.011.012,17.373-17.824Z" transform="translate(-480.636 334.336)"/><path class="a" d="M686.073-271.7l13.411,15.155.1.112h2.258L687.28-272.91Z" transform="translate(-506.511 294.814)"/><g transform="translate(406.263 2.21)"><path class="a" d="M1392.986-332.125l-23.566,24.212v-24.212h-1.681v36.167h1.681v-9.63l8.482-8.725.011.012,17.373-17.824Z" transform="translate(-1367.74 332.125)"/><path class="a" d="M1406.508-271.7l13.411,15.155.1.112h2.258l-14.562-16.474Z" transform="translate(-1393.615 292.603)"/></g><path class="a" d="M1048.817-332.583c-10.569,0-18.54,7.84-18.54,18.236s7.971,18.236,18.54,18.236h.333v-1.63h-.333c-9.611,0-16.859-7.139-16.859-16.606s7.248-16.606,16.859-16.606,16.86,7.139,16.86,16.606v.333h1.68v-.333C1067.357-324.743,1059.386-332.583,1048.817-332.583Z" transform="translate(-736.243 334.641)"/><g transform="translate(101.447 0)"><path class="a" d="M526.079-292.931a.284.284,0,0,0-.01.064.291.291,0,0,0,.038.157.29.29,0,0,0,.177.138.291.291,0,0,0,.222-.028l5.377-3.065-.29-.51-5.376,3.065A.29.29,0,0,0,526.079-292.931Z" transform="translate(-501.166 310.341)"/><path class="a" d="M482.8-303.5a2.033,2.033,0,0,0-.942.627,2.025,2.025,0,0,0-.475,1.488,2.022,2.022,0,0,0,.716,1.388,2.026,2.026,0,0,0,1.488.476,2.056,2.056,0,0,0,1.388-.716,2.027,2.027,0,0,0,.476-1.488,2.025,2.025,0,0,0-.716-1.388A2.033,2.033,0,0,0,482.8-303.5Zm2.154,1.816a1.532,1.532,0,0,1-.36,1.124,1.537,1.537,0,0,1-.711.475,1.562,1.562,0,0,1-.338.066,1.534,1.534,0,0,1-1.124-.359,1.537,1.537,0,0,1-.541-1.049,1.537,1.537,0,0,1,.359-1.124,1.541,1.541,0,0,1,.713-.474,1.536,1.536,0,0,1,1.461.293A1.535,1.535,0,0,1,484.95-301.682Z" transform="translate(-471.334 315.294)"/><path class="a" d="M541.858-302.62a2.055,2.055,0,0,0-.072.451,2.027,2.027,0,0,0,.266,1.1,2.043,2.043,0,0,0,2.783.765,2.029,2.029,0,0,0,.959-1.233,2.061,2.061,0,0,0-.194-1.55,2.028,2.028,0,0,0-1.233-.958,2.025,2.025,0,0,0-1.55.194h0A2.027,2.027,0,0,0,541.858-302.62Zm2.377-.946h0a1.538,1.538,0,0,1,.931.724,1.543,1.543,0,0,1,.2.833,1.559,1.559,0,0,1-.053.339,1.533,1.533,0,0,1-.725.932,1.534,1.534,0,0,1-1.171.146,1.534,1.534,0,0,1-.932-.725,1.527,1.527,0,0,1-.147-1.171,1.532,1.532,0,0,1,.725-.932A1.532,1.532,0,0,1,544.234-303.566Z" transform="translate(-511.655 315.645)"/><path class="a" d="M500.523-295.267a5.832,5.832,0,0,0-5.826,5.826,5.832,5.832,0,0,0,5.826,5.826,5.832,5.832,0,0,0,5.826-5.826A5.832,5.832,0,0,0,500.523-295.267Zm0,10.816a5,5,0,0,1-4.991-4.991,5,5,0,0,1,4.991-4.991,5,5,0,0,1,4.991,4.991A5,5,0,0,1,500.523-284.451Z" transform="translate(-480.228 309.735)"/><path class="a" d="M491.673-318.8a.378.378,0,0,0-.268-.113l-3.4.008-.014-.319a16.371,16.371,0,0,0-.389-2.909l-.071-.311,3.271-.889a.379.379,0,0,0,.23-.179.384.384,0,0,0,.033-.288l-.1-.345c-.075-.27-.169-.606-.289-.951l-.549-1.4c-.056-.143-.113-.291-.191-.454l-.909-1.755-1.081-1.66c-.081-.115-.18-.236-.273-.35l-.975-1.2c-.211-.241-.44-.473-.643-.677l-.03-.031q-.118-.119-.238-.242a.374.374,0,0,0-.267-.113.379.379,0,0,0-.268.11l-2.393,2.406-.235-.216a16.519,16.519,0,0,0-2.333-1.779l-.27-.17,1.686-2.947a.38.38,0,0,0,.036-.29.376.376,0,0,0-.183-.227l-1.181-.637c-.282-.134-.587-.262-.855-.375l-.974-.409c-.1-.036-.218-.074-.338-.113l-.024-.008-1.559-.486-1.412-.305c-.176-.037-.333-.07-.518-.1l-1.088-.129c-.283-.032-.576-.065-.9-.09l-1.28-.027-.073.01a.319.319,0,0,0-.063.017.332.332,0,0,0-.064.03l-.026.014-.1.1a.366.366,0,0,0-.064.209l.021,7.011h.752l-.021-6.628.875.016c.309.024.605.058.867.088.148.017.3.034.43.048l.618.076c.183.032.347.067.514.1l1.338.287,1.518.474.318.1.963.406c.291.123.564.237.8.35l.825.445-1.681,2.938a.374.374,0,0,0-.037.287.376.376,0,0,0,.177.228,15.645,15.645,0,0,1,3.274,2.5.391.391,0,0,0,.532,0l2.39-2.4.236.243c.13.134.257.267.369.395l.967,1.2c.084.1.169.208.233.3l1.045,1.6.893,1.723c.062.13.109.253.161.388l.548,1.394c.058.165.112.34.173.551l.094.324-3.268.887a.375.375,0,0,0-.228.176.373.373,0,0,0-.036.285,15.652,15.652,0,0,1,.547,4.084.374.374,0,0,0,.111.264.354.354,0,0,0,.252.11l3.4-.009-.019.882c-.026.362-.069.72-.107,1.036l-.1.868c-.023.14-.049.261-.075.383l-.314,1.469-.577,1.831-.4.944c-.12.283-.245.577-.365.83l-.445.825-2.939-1.681a.372.372,0,0,0-.284-.037.377.377,0,0,0-.229.177,15.635,15.635,0,0,1-2.495,3.277.381.381,0,0,0-.109.267.372.372,0,0,0,.109.263l2.4,2.389-.24.236c-.155.151-.283.271-.392.367l-1.2.967c-.114.092-.213.172-.312.238l-1.591,1.039-1.734.9c-.126.062-.25.111-.371.159l-1.4.549c-.168.059-.337.112-.55.173l-.324.093-.888-3.269a.381.381,0,0,0-.179-.229.372.372,0,0,0-.283-.034,15.673,15.673,0,0,1-4.082.547.378.378,0,0,0-.265.11.371.371,0,0,0-.11.267l.008,3.387-.884-.02c-.345-.025-.679-.064-.973-.1l-.922-.107c-.116-.021-.211-.041-.322-.064l-1.538-.328-1.509-.473c-.123-.039-.245-.077-.327-.1l-.89-.376c-.3-.127-.617-.259-.879-.38l-.826-.448,1.681-2.938a.374.374,0,0,0,.037-.287.374.374,0,0,0-.176-.227,15.663,15.663,0,0,1-3.278-2.495.359.359,0,0,0-.267-.109.371.371,0,0,0-.264.111l-2.388,2.4-.235-.242c-.16-.164-.274-.286-.367-.393l-.818-1c-.052-.069-.1-.129-.149-.19l-.022-.028c-.083-.1-.156-.2-.211-.272l-1.044-1.6-.893-1.726c-.043-.091-.079-.177-.112-.262l-.046-.116c-.029-.074-.058-.144-.08-.2L453-312.12c-.071-.2-.128-.392-.174-.551l-.093-.325,3.27-.889a.373.373,0,0,0,.227-.175.377.377,0,0,0,.037-.287,15.6,15.6,0,0,1-.55-4.079.384.384,0,0,0-.112-.268.371.371,0,0,0-.263-.108l-3.388.008.016-.875c.023-.3.054-.565.092-.884l.121-1.026c.026-.153.054-.291.083-.427l.307-1.426.445-1.421c.048-.155.1-.305.137-.422l.49-1.162c.095-.221.182-.423.262-.6l.449-.827,2.94,1.682a.376.376,0,0,0,.285.036.38.38,0,0,0,.227-.177A15.5,15.5,0,0,1,460.3-329.6a.376.376,0,0,0,.109-.267.38.38,0,0,0-.112-.265l-2.4-2.387.239-.236c.157-.155.282-.272.393-.369l1.007-.816c.071-.053.131-.1.2-.155l.027-.022c.1-.083.193-.155.271-.209l1.594-1.041,1.724-.892c.11-.052.214-.094.316-.135l.044-.017c.1-.039.166-.066.217-.088l1.2-.472c.19-.067.377-.122.553-.172l.324-.093.881,3.244.712-.251-.965-3.554a.374.374,0,0,0-.179-.23.372.372,0,0,0-.287-.033l-.384.107c-.294.081-.593.163-.914.275l-1.225.481c-.058.025-.125.052-.2.081-.135.053-.275.109-.428.181l-1.784.926-1.627,1.061c-.108.076-.217.163-.329.252l-.059.047c-.045.036-.093.074-.149.116l-1.026.831c-.231.2-.458.429-.659.63l-.034.034c-.084.083-.168.167-.252.249a.38.38,0,0,0-.114.268.373.373,0,0,0,.11.267l2.406,2.391-.216.235a16.411,16.411,0,0,0-1.778,2.335l-.17.271L454.39-328.7a.379.379,0,0,0-.29-.035.378.378,0,0,0-.228.183l-.64,1.182c-.115.247-.23.517-.345.786l-.439,1.044c-.054.152-.108.323-.162.5l-.444,1.423-.317,1.467c-.03.143-.06.289-.09.469l-.125,1.061c-.037.314-.071.6-.1.921l-.025,1.283a.384.384,0,0,0,.108.272.38.38,0,0,0,.269.112l3.4-.009.014.319a16.44,16.44,0,0,0,.392,2.907l.071.311-3.273.89a.38.38,0,0,0-.231.179.38.38,0,0,0-.032.289l.1.368c.072.26.161.582.282.927l.479,1.23c.024.054.051.122.089.219.056.142.1.263.172.4l.927,1.787,1.062,1.627c.075.106.162.217.25.325l.042.052c.047.059.082.1.124.158l.834,1.025c.21.239.444.476.652.684l.255.259a.387.387,0,0,0,.271.116.392.392,0,0,0,.268-.112l2.388-2.4.235.214a16.461,16.461,0,0,0,2.336,1.778l.27.17-1.687,2.947a.376.376,0,0,0-.035.287.376.376,0,0,0,.182.23l1.184.641c.3.14.637.281.933.406l.9.378c.1.037.224.075.346.114l.021.007,1.556.486,1.5.323c.152.032.273.057.433.085l.952.112c.306.036.653.076,1.023.1l1.288.028a.366.366,0,0,0,.271-.106.38.38,0,0,0,.114-.271l-.009-3.4.319-.014a16.424,16.424,0,0,0,2.909-.389l.312-.07.888,3.27a.364.364,0,0,0,.177.23.375.375,0,0,0,.287.035l.354-.1c.306-.085.613-.172.943-.287l1.381-.542c.163-.063.31-.122.464-.2l1.789-.928L483.356-302c.128-.087.257-.191.382-.291l1.191-.963c.23-.2.463-.433.668-.636l.275-.27a.382.382,0,0,0,.115-.269.373.373,0,0,0-.11-.267l-2.405-2.391.215-.235a16.468,16.468,0,0,0,1.777-2.336l.17-.27,2.947,1.686a.377.377,0,0,0,.29.035.374.374,0,0,0,.227-.183h0l.637-1.18c.127-.268.253-.564.374-.85l.416-.99c.032-.094.069-.209.115-.354l.489-1.559.319-1.487c.029-.136.058-.273.088-.448l.1-.9c.036-.3.082-.675.11-1.073l.027-1.287A.374.374,0,0,0,491.673-318.8Z" transform="translate(-451.19 338.772)"/><rect class="a" width="0.752" height="2.411" transform="matrix(1, -0.003, 0.003, 1, 19.895, 12.477)"/><path class="a" d="M510.982-311.466h.752l-.016-5.086h-.752Z" transform="translate(-491.087 323.942)"/><path class="a" d="M510.982-237.2h.752l-.016-9.468h-.752Z" transform="translate(-491.087 277.3)"/><path class="a" d="M490.819-278.057a9.915,9.915,0,0,1-7.092-2.322,10.019,10.019,0,0,1-2.143-12.651l-.55-.222a10.635,10.635,0,0,0,2.315,13.32,10.453,10.453,0,0,0,7.464,2.462Z" transform="translate(-470.18 308.391)"/></g></svg>